<?xml version="1.0" standalone="no"?>
<!DOCTYPE svg PUBLIC "-//W3C//DTD SVG 20010904//EN"
 "http://www.w3.org/TR/2001/REC-SVG-20010904/DTD/svg10.dtd">
<svg version="1.0" xmlns="http://www.w3.org/2000/svg"
 width="150.000000pt" height="150.000000pt" viewBox="0 0 150.000000 150.000000"
 preserveAspectRatio="xMidYMid meet">

<g transform="translate(0.000000,512.000000) scale(0.100000,-0.100000)"
fill="#000000" stroke="none">
<path d="M3400 5086 c-237 -43 -444 -129 -633 -263 -105 -74 -266 -235 -340
-340 -534 -751 -270 -1792 558 -2200 299 -148 662 -187 993 -108 762 183 1255
933 1118 1700 -107 599 -562 1067 -1166 1200 -102 23 -427 29 -530 11z m-743
-558 l23 -21 0 -724 0 -723 75 0 75 0 0 490 0 491 25 24 c24 25 25 25 223 25
186 0 200 -1 220 -20 l22 -21 0 -494 0 -495 45 0 44 0 3 356 3 356 24 19 c21
17 41 19 221 19 180 0 200 -2 221 -19 l24 -19 3 -356 3 -356 39 0 40 0 0 613
c0 611 0 614 21 633 19 17 41 19 196 22 196 4 235 0 264 -29 18 -18 19 -38 19
-629 l0 -610 90 0 c49 0 100 -5 114 -11 55 -26 55 -112 0 -138 -36 -16 -2086
-16 -2117 1 -48 25 -46 -1 -47 817 l0 775 22 23 c28 30 74 30 105 1z"/>
<path d="M4140 3615 l0 -555 95 0 95 0 0 555 0 555 -95 0 -95 0 0 -555z"/>
<path d="M2990 3495 l0 -435 90 0 90 0 0 435 0 435 -90 0 -90 0 0 -435z"/>
<path d="M3570 3355 l0 -295 90 0 90 0 0 295 0 295 -90 0 -90 0 0 -295z"/>
<path d="M243 3905 l241 -385 751 0 752 0 6 143 c10 208 46 388 109 541 15 38
28 73 28 77 0 5 -475 9 -1064 9 l-1064 0 241 -385z"/>
<path d="M590 3355 c0 -2 221 -356 490 -785 l490 -780 0 -533 1 -532 462 -358
462 -357 5 887 5 888 133 208 c72 114 132 212 132 216 0 4 -28 28 -62 51 -350
242 -595 609 -683 1023 l-16 77 -710 0 c-390 0 -709 -2 -709 -5z"/>
</g>
</svg>
